<svg width="2218" height="1236" viewBox="0 0 2218 1236" fill="none" xmlns="http://www.w3.org/2000/svg">
<path fill-rule="evenodd" clip-rule="evenodd" d="M61.2663 52.7998C73.2663 24.6665 82.9997 1.46648 82.9997 1.19981C82.9997 0.933146 81.533 0.666479 79.6663 0.666479C77.133 0.666479 75.933 1.73315 74.8663 4.26648C74.0663 6.39981 70.8663 13.9998 67.6663 21.3331C65.9635 25.4051 62.0408 34.6158 57.2906 45.7694C53.4859 54.7027 49.1505 64.8824 44.9997 74.6665C43.6261 77.9041 42.1544 81.3727 40.619 84.9916C31.7207 105.964 20.6812 131.982 14.1997 147.333C1.26634 177.466 0.199675 180.533 0.599675 187.466L0.999675 194.933L20.1997 149.466C24.5834 139.165 30.2733 125.755 36.2883 111.579C44.9093 91.2622 54.198 69.3711 61.2663 52.7998ZM163.007 28.5606C169.392 13.5866 174.263 2.16098 174.6 1.59981C174.866 1.06648 173.666 0.666479 171.8 0.666479C169.933 0.666479 167.933 1.73315 167.133 2.93315C166.556 4.08761 156.582 27.5328 143.791 57.6035C141.809 62.2626 139.759 67.0808 137.666 71.9998C108.368 140.956 86.7032 191.979 69.4959 232.504C50.6033 276.999 37.0839 308.838 24.733 337.866C1.53301 392.667 0.199675 396.133 0.599675 403.2L0.999675 410.667L25.533 352.667C32.7129 335.843 40.1159 318.35 46.133 304.132C51.5133 291.419 55.7855 281.324 57.7997 276.667C61.933 266.8 83.133 216.666 105 165.333C114.706 142.407 124.971 118.231 134.072 96.7965C145.349 70.2364 154.839 47.8845 159.266 37.3331C160.553 34.316 161.807 31.3756 163.007 28.5606ZM247.053 46.7997C250.096 39.6582 253.316 32.1014 256.066 25.5998L266.733 0.666479H263.133C259.666 0.666479 258.466 3.33315 226.733 78.2665C208.6 121.066 179.933 188.666 162.866 228.666C145.933 268.667 121.933 325.333 109.4 354.533C96.9997 383.733 86.333 408.8 85.533 410.267C84.733 411.733 82.733 412.667 80.5997 412.667C76.9997 412.667 76.333 413.867 66.0663 438.267C63.9239 443.313 60.3535 451.743 55.962 462.111C48.055 480.779 37.4864 505.731 27.7997 528.533L0.333008 593.067V610.533L0.466341 628L7.79967 610.667C11.933 601.067 18.4663 585.867 22.333 576.667C26.1997 567.466 38.733 537.733 50.333 510.667C56.3215 496.461 64.2011 477.892 71.9015 459.745C78.9457 443.144 85.84 426.897 90.9997 414.667C101.8 388.933 124.333 335.866 141 296.667C209 136.666 231.666 83.1998 238.333 67.3332C240.387 62.4467 243.606 54.8897 247.053 46.7997ZM213.266 342.133C302.6 131.6 357.666 1.73315 357.666 1.19981C357.666 0.933146 356.2 0.666479 354.466 0.666479C351.533 0.666479 350.2 3.06648 340.333 26.2665C329.42 51.9859 314.175 87.8575 300.047 121.099C282.242 162.994 266.212 200.712 262.866 208.666C260.962 213.281 253.786 230.208 244.081 253.104C236.119 271.887 226.454 294.686 216.6 318L176.6 412L172.333 412.667L168.066 413.333L84.1997 610.933L0.333008 808.667L0.466341 825.6V842.667L3.26634 836.667C5.79967 830.933 43.6663 742.267 58.333 707.333C62.1997 698.133 75.533 666.667 88.0663 637.333C144.2 505.333 172.066 439.466 181.933 416.133C187.8 402.133 201.8 368.933 213.266 342.133ZM431 45.3331C440.6 22.5331 448.866 3.19981 449.266 2.26648C449.666 1.19981 448.733 0.666479 446.466 0.666479C443.533 0.666479 442.466 1.59981 440.733 5.59981C440.121 7.20582 433.412 23.024 423.525 46.3368C416.173 63.6688 407.065 85.1433 397.4 108C374.6 161.466 337.4 249.066 314.733 302.667C297.686 342.876 282.224 379.24 274.98 396.275C272.592 401.892 271.097 405.407 270.733 406.267C268.466 411.6 267.4 412.533 263.933 412.933C259.933 413.333 259.666 413.867 240.066 460C218.841 510.031 202.357 548.856 189.069 580.152C178.985 603.903 170.742 623.316 163.666 640C148.466 675.867 114.6 755.733 94.5997 802.667C86.333 822 85.933 822.667 81.7997 823.333L77.3997 824L52.8663 882C39.2663 913.867 21.933 954.8 14.333 972.933L0.333008 1005.73V1032.93V1060L32.8663 983.333C50.733 941.2 76.4663 880.533 90.0663 848.667C119 780.8 149 710.133 161.666 680C171.133 657.466 199 591.867 233 512C251.533 468.4 267 431.867 286.333 386C290.2 376.8 303.666 345.066 316.333 315.333C329 285.6 342.466 253.866 346.333 244.666C350.2 235.466 363.666 203.733 376.333 174C389 144.266 402.466 112.533 406.333 103.333C410.2 94.1331 421.266 67.9998 431 45.3331ZM517.8 56.1331C530.2 26.9331 540.733 2.53315 541.133 1.86648C541.533 1.19981 540.2 0.666479 538.066 0.666479C534.419 0.666479 533.826 2.06615 500.239 81.3118L497.8 87.0665C477.666 134.533 450.6 198.266 437.666 228.666C432.396 241.054 425.488 257.338 418.132 274.677C407.436 299.889 395.794 327.331 386.866 348.267L359.666 412.667H355.666H351.666L318.733 490.267C301.556 530.81 265.714 615.143 236.935 682.858L232.2 694C202.866 763.333 178.466 820.667 178.066 821.6C177.666 822.4 175.533 823.333 173.266 823.6L169 824L139.266 894C122.866 932.533 94.8663 998.533 76.9997 1040.67C59.133 1082.8 34.5997 1140.67 22.4663 1169.33C3.26634 1214.4 0.333008 1222.27 0.333008 1228.27V1235.33H8.86634H17.3997L22.0663 1224.27C22.752 1222.64 24.4144 1218.74 26.8024 1213.14C33.2373 1198.05 44.9412 1170.59 56.9997 1142C105.533 1027.6 169.4 877.2 205.933 791.333C213.266 774.133 222.466 752.533 226.333 743.333C230.2 734.133 247 694.533 263.666 655.333C280.333 616.133 303.266 562.133 314.6 535.333C325.933 508.533 336.866 482.8 339 478C341 473.2 348.466 455.466 355.666 438.667C362.733 421.733 370.866 402.533 373.666 396C376.114 390.171 384.677 369.974 393.741 348.593L397.666 339.333C402.53 327.86 410.864 308.221 420.568 285.354C431.614 259.325 444.435 229.113 455.933 202C463.687 183.715 472.249 163.54 480.613 143.832C495.548 108.641 509.851 74.9361 517.8 56.1331ZM576.333 134.666C606.6 63.4665 631.533 4.26648 631.933 2.93315C632.466 1.19981 631.8 0.666479 629.533 0.666479C626.733 0.666479 625.533 2.39981 620.733 13.5998C617.003 22.18 610.076 38.5231 592.606 79.7403C585.1 97.4493 575.647 119.75 563.666 148C554.333 170 540.866 201.733 533.666 218.666C528.526 230.661 520.19 250.337 512.446 268.618C509.344 275.941 506.336 283.041 503.666 289.333C493.166 314.167 481.167 342.349 471.571 364.889C464.474 381.558 458.691 395.141 455.8 402C451.933 411.066 451.133 412 447.4 412.4C443.4 412.8 443.266 413.066 417.266 474.4C413.472 483.323 408.891 494.089 403.892 505.837C389.917 538.679 372.671 579.206 360.2 608.667C343.266 648.667 326.466 688.267 322.866 696.667C319.4 705.067 305.8 737.2 292.733 768C269.133 823.467 268.866 823.867 265 824C262.066 824 260.6 824.933 259.4 827.333C258.6 829.2 235 884.667 207 950.667C191.585 987.002 173.058 1030.61 156.403 1069.81C142.806 1101.82 130.456 1130.89 122.066 1150.67C103.4 1194.67 87.7997 1231.73 87.3997 1232.93C86.733 1235.07 87.7997 1235.33 97.933 1235.33H109.266L111.266 1230.27C112.01 1228.41 119.367 1211.12 129.403 1187.53C133.76 1177.29 138.621 1165.87 143.666 1154C151.942 1134.54 163.57 1107.12 175.679 1078.57C187.957 1049.61 200.729 1019.5 211 995.333C220.341 973.354 231.247 947.657 241.646 923.157C253.956 894.152 265.555 866.825 273 849.333C276.524 841.052 280.224 832.367 283.882 823.783C294.475 798.92 304.707 774.902 309.266 764C333.4 707.333 339.533 692.8 346.333 676.667C350.2 667.466 363.533 636 376.066 606.667C389.039 576.111 398.742 553.269 406.469 535.078C423.997 493.815 431.359 476.483 443.666 447.333C466.733 392.667 508.333 294.667 576.333 134.666ZM711.133 33.0665C718.466 15.9998 724.333 1.86648 724.333 1.46648C724.333 1.06648 722.866 0.666479 721.133 0.666479C718.466 0.666479 717.266 2.26648 713.266 11.5998C710.753 17.4108 680.306 89.1732 643.742 175.351C618.224 235.497 589.726 302.664 565.666 359.333L564.774 361.438C543.399 411.87 543.34 412.009 539 412.667C535.266 413.2 534.333 414.267 531.666 420.667C530.066 424.667 515 460.133 498.333 499.333C467.8 571.067 455.266 600.667 442.333 631.333C438.466 640.533 425.266 671.733 412.866 700.667C400.6 729.6 383.8 769.2 375.533 788.667C361.4 821.867 360.333 824 357.266 823.6C355.533 823.333 353.533 824 352.733 824.933C351.933 825.867 343.8 844.4 334.6 866C330.237 876.243 323.205 892.843 315.24 911.648C306.409 932.497 296.429 956.056 287.666 976.667C271 1015.87 254.2 1055.47 250.333 1064.67C246.466 1073.87 233 1105.6 220.333 1135.33C207.666 1165.07 194.2 1196.8 190.333 1206C186.466 1215.2 182.066 1225.47 180.466 1228.93L177.8 1235.33H189.4H201L209.533 1214.93C214.2 1203.87 221.533 1186.53 225.8 1176.67C229.933 1166.8 243.666 1134.4 256.333 1104.67C269 1074.93 282.466 1043.2 286.333 1034C290.2 1024.8 303.666 993.067 316.333 963.333C329 933.6 342.466 901.867 346.333 892.667C350.2 883.467 373 829.733 397 773.333C400.8 764.382 404.824 754.903 408.971 745.134C431.014 693.206 456.53 633.099 470.333 600.667C486.6 562.133 509.266 508.8 520.733 482C525.517 470.688 530.965 457.857 536.187 445.56C543.336 428.722 550.059 412.888 554.066 403.333C567.4 371.733 620.6 246.133 627 231.333C627.766 229.494 629.609 225.17 632.108 219.305C636.132 209.861 641.858 196.422 647.533 182.933C675.933 115.866 697.4 65.3332 711.133 33.0665ZM799.133 42.2665C808.6 19.9998 816.333 1.59981 816.333 1.19981C816.333 0.933146 813 0.666479 809 0.666479C802.2 0.666479 801.533 0.933146 800.333 4.13315C799.888 5.24586 797.668 10.4857 794.546 17.855C792.057 23.7313 788.994 30.9617 785.8 38.5331C753.366 114.368 750.027 121.906 749.699 129.574C749.652 130.669 749.666 131.767 749.666 133.066C749.666 142.4 749.133 143.866 731 186.666C720.6 210.8 703.533 251.066 693 276C638.054 405.548 635.334 412.707 632.553 412.731C632.108 412.735 631.661 412.556 631 412.667L626.6 413.333L601.4 472.667C594.33 489.322 585.388 510.415 576.73 530.836C568.408 550.467 560.348 569.479 554.466 583.333C550.574 592.503 545.124 605.32 538.831 620.12C525.724 650.943 508.962 690.364 495 723.333C474.333 772.133 456.333 814.533 455 817.6C452.866 822.533 451.933 823.333 448.6 823.333C447.814 823.333 447.185 823.303 446.6 823.45C443.914 824.123 442.16 828.522 430.333 856.667C426.466 865.867 409.666 905.467 393 944.667C369.223 1000.63 341.026 1067.1 318.049 1121.26C305.334 1151.23 294.218 1177.43 286.333 1196L269.933 1234.67L280.733 1235.07C286.6 1235.33 291.933 1234.93 292.466 1234.4C293 1233.87 309.8 1194.93 329.666 1148C356.901 1083.89 382.316 1023.99 404.357 972.037C427.744 916.913 447.332 870.742 461.266 838C474.866 806.133 499.4 748.4 515.8 709.6C522.22 694.462 530.256 675.563 538.641 655.84C551.674 625.187 565.554 592.543 575.533 568.933C591.933 530.266 616.466 472.533 630.066 440.667C656.866 377.6 691.666 295.6 746.6 166C766.066 120.133 789.666 64.5331 799.133 42.2665ZM892.508 37.8383C897.419 26.2296 901.411 16.7914 903 12.9331L908.2 0.666479H901C895.4 0.666479 893.533 1.19981 892.6 2.93315C891.327 5.22365 877.789 37.1465 834.136 140.079L827.666 155.333C813.133 189.466 789.666 244.8 775.533 278.266C750.2 338 749.666 339.333 749.666 348.533C749.666 357.333 749 359.6 738.066 385.333C726.6 412.4 726.333 412.667 722.333 412.667H718.333L677.8 508.4C661.492 546.645 645.114 585.243 635.353 608.246C631.707 616.84 628.984 623.258 627.533 626.667C622.333 639.067 604.333 681.466 587.666 720.667C571 759.867 554.466 798.933 551 807.333C544.866 822 544.333 822.667 540.2 823.333C535.8 824 535.533 824.533 527.533 843.333C455.133 1014 439.533 1050.67 433.266 1065.33C430.014 1072.97 413.871 1111.01 397.904 1148.63C381.801 1186.58 365.876 1224.11 363.533 1229.6C362.466 1232 361.666 1234.27 361.666 1234.67C361.666 1235.07 366.733 1235.33 372.866 1235.33H384.066L393 1214.27C395.438 1208.6 400.937 1195.64 407.872 1179.29C414.969 1162.56 423.571 1142.29 431.933 1122.67C437.595 1109.33 444.477 1093.11 451.744 1075.97C465.695 1043.08 481.062 1006.85 491.933 981.333C495.997 971.763 500.23 961.791 504.41 951.942C517.237 921.723 529.569 892.67 535 880C536.899 875.533 539.643 869.062 542.959 861.241C552.214 839.412 565.93 807.063 578.2 778.4C643.133 625.6 669 564.533 677.666 544C682.6 532.266 696.866 498.667 709.4 469.333C715.502 454.899 725.187 432.102 735.915 406.853C746.987 380.792 759.169 352.119 769.666 327.333C843.912 152.307 861.127 111.827 876.988 74.5323L880.333 66.6665C884.486 56.8028 888.764 46.6896 892.508 37.8383ZM879.666 284.667C957.933 100.533 992.2 19.7331 996.466 9.59981L1000.2 0.666479H992.6H985L972.866 29.7331C961.4 56.9331 921 152.266 851.4 316C834.866 354.8 818.866 392.533 815.933 399.6L810.6 412.533L802.466 412.933L794.466 413.333L789.4 425.333C786.6 431.867 776.466 455.6 767 478L749.666 518.8V536.8V554.933L743.8 568.8C738.066 582.533 692.733 689.333 660.733 764.667C651.533 786.267 642.066 808.533 639.8 814C635.933 823.067 635.266 823.867 631.666 824C628.733 824 627.266 824.933 626.2 827.333C624.466 830.933 569.133 961.2 538.333 1034C534.466 1043.2 521 1074.93 508.333 1104.67C495.666 1134.4 482.2 1166.13 478.333 1175.33C476.116 1180.61 472.803 1188.38 469.475 1196.19C466.999 1202 464.514 1207.83 462.466 1212.67C457.666 1224 453.666 1233.73 453.666 1234.27C453.666 1234.93 458.733 1235.33 464.733 1235.33H475.933L491 1199.6L495.38 1189.26C510.24 1154.18 517.132 1137.92 544.333 1074C557 1044.27 570.466 1012.53 574.333 1003.33C578.2 994.133 591.666 962.4 604.333 932.667C608.865 922.01 612.686 913.027 616.279 904.581C632.24 867.06 643.698 840.126 693 724C714.733 672.667 742.066 608.4 753.666 581.333C765.266 554.133 786.466 504.4 800.733 470.667C808.77 451.662 823.579 416.788 840.175 377.703C853.038 347.411 866.975 314.59 879.666 284.667ZM1082.2 23.3331C1087 11.9998 1091 2.26648 1091 1.59981C1091 1.06648 1087.8 0.666479 1083.8 0.666479H1076.73L1050.07 63.5998C1042.58 81.1437 1032.42 105.073 1022.11 129.375C1012.05 153.093 1001.83 177.165 993.8 196C977.666 234.133 950.466 298.267 933.266 338.667L902.2 412L894.066 412.4C886.2 412.8 885.933 412.933 884.066 417.733C883.396 419.223 878.565 430.614 871.526 447.213C865.964 460.329 859.023 476.697 851.666 494C835 533.2 818.2 572.8 814.333 582C810.466 591.2 794.333 629.2 778.466 666.533L749.666 734.4V752.8V771.2L738.466 797.6L738.006 798.679C727.266 823.87 727.213 823.994 723.4 823.6L719.4 823.2L702.333 863.6C694.033 883.401 682.886 909.635 676.019 925.797C675.164 927.809 674.375 929.665 673.666 931.333C671.766 935.806 668.997 942.3 665.693 950.047C657.867 968.397 647.042 993.781 637.666 1016C630.15 1033.74 620.177 1057.24 610.708 1079.55C603.379 1096.82 596.352 1113.38 591 1126C588.23 1132.53 585.296 1139.46 582.338 1146.44C572.196 1170.37 561.761 1194.99 556.6 1207.07L544.6 1235.33H556.2H567.666L626.6 1096.27C659 1019.87 708.733 902.667 737.133 836C751.672 801.641 768.434 762.202 783.498 726.756C797.722 693.288 810.433 663.38 818.333 644.667C863.133 539.06 888.802 478.672 905.235 440.014C913.304 421.029 919.147 407.285 923.933 396C942.733 352 996.733 224.8 1006.33 202C1013.67 184.4 1067.13 58.5331 1082.2 23.3331ZM1169.8 33.0665C1177 16.1331 1183 1.86648 1183 1.46648C1183 1.06648 1179.67 0.666479 1175.67 0.666479C1169.27 0.666479 1168.07 1.06648 1167.13 3.59981C1166.47 5.33315 1157.4 26.7998 1147 51.3331C1131.32 88.3297 1120.03 114.941 1110.8 136.712C1107.78 143.814 1104.99 150.402 1102.33 156.666C1098.47 165.866 1085.13 197.333 1072.6 226.666C1057.29 262.759 1042.29 298.077 1029.85 327.337C1015.97 360.013 1005.29 385.133 1001 395.333L993.933 412L985.933 412.4L977.933 412.8L971.266 428.4C959.666 455.6 926.2 534.266 863.933 681.2L803.4 823.733L795.8 823.6C788.2 823.6 788.066 823.6 786.066 828.4C785 831.067 776.333 851.6 766.866 873.733L749.666 914.267V941.333V968.267L713.533 1053.47C699.965 1085.52 683.786 1123.6 671.322 1152.94C665.536 1166.56 660.551 1178.3 657 1186.67L636.6 1234.67L647.4 1235.07C653.266 1235.33 658.6 1234.93 659.133 1234.4C659.666 1233.87 672.333 1204.8 687.133 1170C695.65 1149.79 706.774 1123.6 717.034 1099.45C724.443 1082.01 731.4 1065.63 736.6 1053.33C749.133 1024 762.466 992.533 766.333 983.333C770.2 974.133 783.666 942.4 796.333 912.667C809 882.933 822.466 851.2 826.333 842C830.2 832.8 846.866 793.466 863.4 754.667C911.933 640.4 971.8 499.333 983.666 471.333C987.858 461.366 1001.1 430.246 1016.83 393.253C1023.62 377.297 1030.87 360.249 1038.07 343.333C1061.93 287.2 1098.33 201.466 1119 152.666C1130.45 125.625 1142.6 97.0677 1152.38 74.0746C1160.25 55.5743 1166.59 40.6758 1169.8 33.0665ZM1249 61.8338C1262.5 29.9505 1272.02 7.45894 1272.73 5.59981L1274.87 0.666479H1267.67C1262.07 0.666479 1260.2 1.19981 1259.13 2.93315C1258.07 5.06648 1217.8 99.8665 1198.33 146C1194.47 155.2 1181 186.933 1168.33 216.666C1155.67 246.4 1141.93 278.8 1137.8 288.667C1135.67 293.589 1131.25 304.019 1125.82 316.846C1120.36 329.731 1113.88 345.034 1107.67 359.6L1085.27 412.533L1077.13 412.933L1069.13 413.333L1028.73 508.667C1008.9 555.339 982.086 618.514 965.343 657.959L959.666 671.333C954.202 684.207 948.127 698.543 942.111 712.741C930.804 739.422 919.706 765.611 913.266 780.667L895.4 822.667L887.933 823.067C881.266 823.467 880.066 823.867 878.466 827.067C877.533 829.067 869.133 848.4 859.933 870C839.8 917.6 793.533 1026.67 768.2 1086.27L749.666 1129.87V1156.93V1184L739 1209.07C733.133 1222.93 728.333 1234.53 728.333 1234.8C728.333 1235.2 733.533 1235.2 739.8 1235.07L751.266 1234.67L754.6 1226.67C757.8 1219.07 776.466 1174.93 847.4 1008C863.933 969.067 894.333 897.467 915 848.667C927.688 818.706 942.789 783.167 955.396 753.496C963.323 734.839 970.264 718.503 975 707.333C979.738 696.158 986.684 679.81 994.616 661.141C1007.22 631.477 1022.32 595.951 1035 566C1060.07 506.763 1083.51 451.677 1103.45 404.804C1113.62 380.884 1122.89 359.102 1131 340C1133.84 333.321 1137.78 324.049 1142.14 313.788C1148.83 298.034 1156.52 279.948 1162.73 265.333C1168.49 251.714 1180.01 224.572 1193.34 193.146C1203.77 168.577 1215.3 141.39 1226.07 116C1234.31 96.5104 1242.16 77.9694 1249 61.8338ZM1354.33 29.9998C1358.2 20.7998 1362.6 10.5331 1364.2 6.93315L1366.87 0.666479H1359.27H1351.67L1332.07 47.0665L1329.93 52.1154C1318.48 79.1102 1297.54 128.479 1281.53 166C1264.6 206 1234.87 276.133 1215.4 322C1195.93 367.866 1179.13 406.933 1178.2 408.933C1176.47 412.4 1175.67 412.667 1168.6 412.667H1161L1135.8 472.4C1121.93 505.2 1107.13 540.133 1102.87 550C1098.97 559.295 1083.72 595.218 1068.14 631.901L1065.27 638.667C1052.34 669.001 1036.07 707.405 1024.62 734.443C1021.42 741.988 1018.6 748.647 1016.33 754C1005.93 778.533 995 804.267 992.066 811.067L986.733 823.333H979.133H971.533L952.733 867.6C942.333 892 919.4 946.133 901.666 988C883.933 1029.87 856.066 1095.47 839.666 1134C823.4 1172.53 807 1211.07 803.266 1219.6L796.6 1235.33H819.666H842.6L862.333 1189.07L877.352 1153.64C914.376 1066.3 946.242 991.127 971.666 931.333C988.333 892.133 1005.27 852.133 1009.27 842.667C1011.25 837.896 1015.61 827.66 1021.02 814.97C1026.49 802.121 1033.03 786.757 1039.27 772C1051.8 742.667 1088.07 657.2 1119.93 582C1151.8 506.8 1189 419.2 1202.6 387.333C1216.2 355.466 1230.47 321.866 1234.33 312.667C1239.82 299.583 1251.48 272.139 1285.32 192.543C1294.24 171.553 1304.7 146.936 1317 118C1333.67 78.7998 1350.47 39.1998 1354.33 29.9998ZM1431.67 63.9998C1445.4 31.7331 1456.87 4.26648 1457.27 2.93315C1457.93 0.933146 1457 0.666479 1450.73 0.666479H1443.4L1430.07 32.2665C1426.89 39.688 1420.78 54.1143 1413.13 72.1907C1402.77 96.6574 1389.58 127.811 1377 157.333C1361.54 193.625 1343.68 235.715 1330.68 266.359C1325.29 279.059 1320.74 289.793 1317.53 297.333C1306.73 322.933 1291.27 359.333 1283.27 378L1268.87 412L1260.87 412.4L1252.87 412.8L1241.67 439.066C1239.21 444.827 1236.4 451.483 1233.63 458.028C1229.47 467.846 1225.43 477.413 1222.87 483.333C1219 492.551 1203.74 528.536 1188.05 565.52L1184.73 573.333C1177.6 590.139 1167.95 612.853 1157.61 637.183C1143.59 670.183 1128.31 706.157 1116.33 734.4L1078.6 823.333H1071.67C1067.67 823.333 1064.07 824 1063.27 824.933C1062.07 826.533 1053.93 845.2 1040.33 877.333C1039.23 879.914 1036.6 886.115 1033.05 894.505C1027.61 907.357 1020 925.345 1012.33 943.333C999.666 973.067 986.2 1004.8 982.333 1014C978.466 1023.2 957.533 1072.67 935.666 1124C927.901 1142.34 920.408 1160 913.892 1175.36C902.173 1202.98 893.618 1223.14 892.333 1226.4L888.466 1235.33H911.4H934.333L959.933 1174.93C983.533 1119.47 1027.67 1015.6 1084.6 881.333C1097.13 852 1110.47 820.533 1114.33 811.333C1118.2 802.133 1134.87 762.667 1151.53 723.6C1156.2 712.618 1161.7 699.673 1167.56 685.877C1182.49 650.76 1199.76 610.122 1211.53 582.266C1219.05 564.538 1227.92 543.697 1236.41 523.743C1246.43 500.176 1255.93 477.845 1262.07 463.333C1279.03 423.48 1314.26 340.487 1344.86 268.395C1372.01 204.454 1395.51 149.087 1399.4 140C1403.17 130.95 1416.3 100.095 1429.3 69.5563L1431.67 63.9998ZM1527.13 55.0665C1539.53 25.9998 1549.67 1.86648 1549.67 1.46648C1549.67 0.933146 1544.6 0.666479 1538.47 0.666479H1527.27L1513.13 33.7331C1499.53 65.5998 1499 67.3332 1499 76.5331C1499 85.8665 1498.6 87.0665 1478.2 135.066C1466.73 162 1453.93 192.133 1449.8 202C1438.6 228.4 1401.93 314.667 1379.8 366.667L1360.6 412L1352.6 412.4L1344.6 412.8L1341.93 419.066C1341.61 419.829 1340.44 422.594 1338.57 426.989C1331.95 442.567 1316.62 478.629 1299.67 518.667C1282.61 558.704 1257.28 618.451 1236.71 666.973C1230.91 680.663 1225.49 693.459 1220.73 704.667C1204.44 742.842 1189.05 779.22 1181.07 798.08C1178.41 804.383 1176.57 808.73 1175.8 810.533L1170.2 823.733L1162.47 823.867L1154.73 824L1096.2 962C1067.92 1028.59 1049.85 1071.2 1036.95 1101.6C1017.98 1146.32 1010.21 1164.63 997.666 1194C995.463 1199.16 993.34 1204.14 991.387 1208.72C985.422 1222.71 981.034 1233 980.733 1233.6C980.2 1234.93 985.133 1235.33 1002.87 1235.33C1023.27 1235.33 1025.67 1235.07 1026.87 1232.93C1027.53 1231.73 1042.6 1196.4 1060.33 1154.67C1096.87 1068.67 1212.33 796.8 1257 691.333C1270.83 658.807 1282.94 630.279 1296.1 599.264C1311.48 563.022 1328.3 523.383 1351 470C1357.36 455.078 1366.47 433.609 1376.04 411.051C1385.54 388.659 1395.5 365.195 1403.67 346C1420.07 307.466 1435.27 271.733 1437.4 266.667C1438.35 264.358 1442.05 255.639 1447.4 243.063C1454.09 227.309 1463.36 205.503 1473 182.666C1490.33 141.6 1514.73 84.1331 1527.13 55.0665ZM1569 172C1601.4 95.5998 1622.73 45.3331 1639.93 4.93315L1641.67 0.666479H1630.33C1621 0.666479 1618.87 1.06648 1617.8 2.93315C1617.13 4.26648 1610.73 19.0665 1603.67 35.9998C1599.22 46.3633 1593.06 60.9379 1587.3 74.5596C1583.72 83.0197 1580.29 91.1122 1577.53 97.5998C1556.56 146.953 1546.04 171.714 1537.43 191.988C1531.92 204.962 1527.19 216.099 1521 230.666C1517.6 238.684 1514.29 246.525 1511.38 253.408C1506.31 265.411 1502.47 274.499 1501.53 276.533C1499.8 280.533 1499 285.466 1499 292C1499 301.6 1498.73 302.533 1477.27 352.8C1465.27 380.933 1454.73 405.866 1453.8 408.267C1452.2 412.4 1451.67 412.533 1443.93 412.933L1435.93 413.333L1418.33 454.667C1408.73 477.333 1383.53 536.8 1362.33 586.667C1341.13 636.533 1309.93 710 1293 750L1262.2 822.667L1254.33 823.333L1246.33 824L1241.13 836C1238.33 842.533 1231.93 857.6 1227 869.333C1222.07 881.067 1204.33 922.8 1187.67 962C1128.73 1100.67 1097.27 1174.8 1090.33 1191.33C1086.47 1200.53 1081.27 1212.8 1078.73 1218.67C1076.2 1224.53 1073.67 1230.67 1073.13 1232.4L1072.2 1235.33L1095 1235.07L1117.93 1234.67L1143.67 1174C1186.6 1072.58 1304.17 795.734 1359.7 664.986C1367.97 645.503 1374.87 629.264 1379.93 617.333C1384.4 606.763 1389.36 595.136 1393.61 585.184C1397.34 576.43 1400.52 568.972 1402.33 564.667C1409.93 546.533 1437.27 482.133 1485 370C1501.67 330.8 1518.47 291.2 1522.33 282C1526.2 272.8 1547.13 223.333 1569 172ZM1713.67 47.3331C1724.07 22.7998 1732.87 2.26648 1733.27 1.59981C1733.53 1.06648 1728.6 0.666479 1722.07 0.666479H1710.33L1696.87 32.3998C1692.52 42.6846 1676.9 79.4921 1656.42 127.753C1642.39 160.828 1626.07 199.283 1609.53 238.266L1535.67 412.667H1524.2H1512.73L1505.8 429.066L1499 445.333V463.066V480.667L1471.4 545.733C1465.01 560.754 1455.56 583.055 1444.9 608.189C1430.21 642.847 1413.24 682.893 1398.87 716.667L1353.93 822.667L1346.6 823.067C1342.6 823.333 1338.6 824.133 1337.93 825.067C1337.27 826 1333.67 833.867 1329.93 842.667C1326.33 851.467 1313 882.933 1300.33 912.667C1287.67 942.4 1274.2 974.133 1270.33 983.333C1263.27 1000.13 1220.6 1100.8 1183.27 1188.27L1163.4 1235.33H1186.33H1209.27L1211.93 1229.07C1212.78 1226.98 1218.14 1214.42 1225.73 1196.6C1231.26 1183.62 1237.97 1167.86 1245 1151.33C1247.42 1145.64 1250.06 1139.44 1252.85 1132.87C1269.3 1094.19 1291.09 1042.94 1305 1010C1321.4 971.467 1344.2 917.733 1355.67 890.667C1367.27 863.467 1380.73 831.733 1385.67 820C1390.6 808.267 1407.27 768.933 1422.73 732.667C1431.21 712.796 1441.88 687.602 1451.89 663.993C1460.14 644.511 1467.94 626.109 1473.67 612.667C1486.2 583.067 1497.67 556.266 1499 553.333C1500.09 550.935 1505.46 538.289 1511.9 523.116C1513.33 519.73 1514.82 516.218 1516.33 512.667C1519.29 505.696 1522.8 497.409 1526.41 488.871C1532.89 473.565 1539.71 457.451 1544.33 446.667C1549.44 434.576 1560.43 408.657 1572.93 379.2C1592.4 333.29 1615.51 278.789 1625.67 254.666C1630.6 242.933 1648.2 201.466 1664.73 162.666C1681.27 123.733 1703.27 71.8665 1713.67 47.3331ZM1768.33 134.666C1804.73 49.0665 1823.4 5.06648 1823.93 2.93315C1824.6 0.933146 1823.4 0.666479 1813.4 0.666479H1802.07L1767.67 81.5998C1753.04 116.351 1733.01 163.531 1717.8 199.342C1713.46 209.56 1709.51 218.852 1706.2 226.666C1702.25 235.966 1697.7 246.727 1692.86 258.142C1679.39 289.935 1663.76 326.806 1653.27 351.333L1627.53 412L1615.8 412.667L1604.07 413.333L1582.73 463.333C1571.13 490.8 1551.93 536.133 1540.07 564C1534.99 575.921 1529.52 588.817 1524.5 600.665C1517.78 616.513 1511.86 630.485 1508.73 637.733L1499 660.8V678.933V696.933L1472.07 760.133L1445.27 823.333H1437.53H1429.93L1419.67 847.6C1411.93 865.733 1305.8 1115.87 1259 1226.27L1255.13 1235.33H1278.07H1301.13L1338.07 1148.27C1344.51 1133.1 1351.73 1116.05 1359.04 1098.8C1374.73 1061.78 1390.82 1023.8 1400.47 1001.33C1414.47 968.267 1441.67 904.133 1461 858.667C1472.57 831.277 1496.47 775.003 1523.62 711.09C1541.54 668.906 1560.87 623.395 1579 580.667C1624.6 473.2 1683.8 333.733 1710.6 270.667C1737.4 207.6 1763.4 146.4 1768.33 134.666ZM1882.21 82.3689C1901.2 37.4677 1916.33 1.71122 1916.33 1.33315C1916.33 0.933146 1911.27 0.666479 1905 0.666479C1894.47 0.666479 1893.53 0.933146 1892.47 3.59981C1891.8 5.33315 1882.73 26.7998 1872.33 51.3331C1861.93 75.8665 1836.6 135.6 1816.07 184C1807.61 203.926 1798.05 226.429 1788.86 248.056C1775.73 278.96 1763.36 308.076 1756.07 325.333C1743.53 354.667 1730.2 386.133 1726.47 395.333L1719.4 412L1707.53 412.667L1695.67 413.333L1687.53 432.667C1683.02 443.369 1668.35 477.927 1647.07 528.054C1626.2 577.22 1598.97 641.364 1568.73 712.667C1547 763.6 1527.67 809.2 1525.8 814L1522.07 822.667L1510.6 823.067L1499 823.467V850V876.667L1484.47 910.933C1473.53 936.88 1450.64 990.806 1419.01 1065.31C1407.08 1093.41 1393.91 1124.44 1379.67 1158C1363 1197.2 1348.87 1230.67 1348.2 1232.27L1347 1235.33H1370.07H1393L1399.27 1220.27C1402.73 1212.13 1409.13 1196.93 1413.4 1186.67C1427.67 1153.2 1480.87 1028 1504.33 972.667L1523.88 926.676C1568.86 820.844 1588.69 774.182 1594.33 760.667C1602.47 741.466 1633.27 668.8 1677 566C1693.67 526.8 1710.47 487.2 1714.33 478C1718.2 468.8 1731.53 437.333 1744.07 408C1790.47 298.8 1827.53 211.466 1834.33 195.333C1838.2 186.133 1858.2 138.933 1878.87 90.2665L1882.21 82.3689ZM1999.93 20.6665C2003.27 12.9331 2006.47 5.33315 2007.13 3.59981C2007.47 2.66703 2007.7 2.03086 2007.5 1.59699C2007.07 0.666479 2004.64 0.666479 1997 0.666479C1990.87 0.666479 1985.53 1.19981 1985.13 1.86648C1984.37 2.88249 1972 32.0845 1941.67 103.645L1937 114.666C1933.26 123.53 1926.43 139.638 1918.71 157.838C1912.37 172.765 1905.44 189.1 1899.13 204C1889.24 227.054 1873.73 263.633 1859.36 297.5C1853.21 312.013 1847.27 326.027 1842.07 338.267L1810.6 412.667H1799.13H1787.67L1758.47 481.733C1747.44 507.613 1735.79 535.05 1727.82 553.828C1724.13 562.526 1721.22 569.366 1719.53 573.333C1714.33 585.733 1696.33 628.133 1679.67 667.333C1669.79 690.563 1658.41 717.398 1648.9 739.847C1642.36 755.281 1636.69 768.642 1633 777.333C1631.35 781.197 1629.73 784.99 1628.17 788.622C1621.21 804.917 1615.63 817.964 1614.87 819.6C1613.27 823.2 1613 823.333 1602.33 823.333C1595.13 823.333 1590.87 823.867 1590.07 825.067C1589.27 825.867 1582.73 841.067 1575.27 858.667C1573.48 862.867 1570.98 868.775 1567.97 875.89C1558.35 898.59 1543.53 933.571 1530.33 964.533L1499 1038.53V1065.47V1092.53L1493.13 1106.27C1471.53 1156.93 1439 1234 1439 1234.67C1439 1235.07 1449.27 1235.2 1461.8 1235.07L1484.6 1234.67L1492.2 1216.67C1496.47 1206.8 1513.13 1167.47 1529.27 1129.33C1543.06 1096.95 1568.85 1036.28 1595.34 973.943C1626.23 901.281 1658.07 826.355 1673 791.333L1674.49 787.816C1683.52 766.567 1702.46 721.968 1718.07 685.333C1724.77 669.551 1733.2 649.672 1741.97 628.999C1754.83 598.674 1768.42 566.643 1778.33 543.333C1811.81 464.612 1816.81 452.708 1835.61 408.005L1836.73 405.333C1844.47 386.933 1854.47 363.333 1859 352.667C1867.8 332.133 1898.6 259.6 1913.67 224C1918.6 212.266 1936.33 170.533 1953 131.333C1967.77 96.5941 1982.02 62.9021 1987.11 50.8583L1988.6 47.3331L1989.72 44.6922C1992.7 37.6366 1996.99 27.4904 1999.93 20.6665ZM2054.33 108.666C2079 50.3998 2099.53 2.26648 2099.93 1.59981C2100.2 1.06648 2095.27 0.666479 2088.73 0.666479H2077L2057.4 47.0665C2053.8 55.5494 2047.45 70.4971 2039.38 89.5099C2023.21 127.576 2000.12 181.937 1978.33 233.333C1945.67 310.267 1915.53 381.466 1911.4 391.333C1907.27 401.2 1903.27 410.133 1902.6 410.933C1901.8 412.133 1897.53 412.667 1890.33 412.667H1879.4L1847.93 486.933C1833.36 521.351 1808.04 581.032 1787.03 630.547L1775.67 657.333C1763.6 685.785 1750.75 716.018 1740.2 740.855C1731.17 762.109 1723.82 779.413 1720.07 788.267L1705.27 823.333H1694.33C1687.13 823.333 1682.87 823.867 1681.93 824.933C1681.27 825.867 1672.2 846.4 1661.93 870.667C1620.33 968.533 1601 1014.13 1594.33 1030C1587 1047.47 1514.6 1218.13 1509.8 1228.93L1507.13 1235.33H1541.53H1576.07L1582.73 1219.6C1586.33 1211.07 1602.87 1172.13 1619.4 1133.33C1626.11 1117.53 1634.55 1097.62 1643.34 1076.93C1656.19 1046.62 1669.76 1014.62 1679.67 991.333C1708.6 923.2 1724.47 885.867 1772.07 774C1780.31 754.699 1794.22 721.966 1807.54 690.607C1813.18 677.34 1818.71 664.32 1823.67 652.667L1823.94 652.034C1840.59 612.864 1864.27 557.176 1876.6 528L1882.93 513.099C1906.12 458.578 1912.75 442.965 1922.33 420C1926.87 408.933 1934.87 390.133 1940.07 378C1950.26 353.893 1982.53 277.85 2022.46 183.76C2032.67 159.719 2043.37 134.499 2054.33 108.666ZM2151 96.6665C2160.33 74.9332 2191 1.99981 2191 1.33315C2191 0.933146 2185.93 0.666479 2179.8 0.666479H2168.73L2166.07 6.93315C2165.17 9.14577 2160.44 20.223 2153.98 35.3356C2149.94 44.8117 2145.21 55.8744 2140.33 67.3332C2127.67 97.0665 2114.2 128.8 2110.33 138C2108 143.54 2103.69 153.675 2099 164.705C2095.9 171.99 2092.64 179.666 2089.67 186.666C2086.7 193.654 2083.44 201.313 2080.35 208.586C2075.65 219.632 2071.33 229.786 2069 235.333C2062.07 251.866 1999.13 400 1995.53 408.267L1993.67 412.533L1982.2 412.933L1970.73 413.333L1903.13 572.667C1891.28 600.573 1879.24 628.94 1867.99 655.448C1843.92 712.148 1823.47 760.343 1816.2 777.333L1797 822.667L1785.13 823.333L1773.4 824L1736.47 911.333C1728.19 930.817 1716.94 957.331 1704.72 986.148C1686.83 1028.33 1666.84 1075.44 1651 1112.67C1635.19 1149.83 1620.83 1183.71 1611.53 1205.63C1605.16 1220.68 1601.17 1230.09 1600.73 1231.07L1599 1235.33H1633.4H1667.8L1681.27 1203.6C1687.74 1188.29 1703.9 1150.29 1719.07 1114.61L1725 1100.67C1741.67 1061.47 1758.47 1021.87 1762.33 1012.67C1766.2 1003.47 1779.53 972 1792.07 942.667C1814.33 890.267 1845.93 815.867 1905 676.667C1915.82 651.188 1923.83 632.298 1932.55 611.732C1946.6 578.593 1962.5 541.099 1995 464.667C2002.56 446.842 2010.42 428.259 2016.21 414.559C2019.82 406.02 2022.63 399.379 2024.07 396C2026.86 389.171 2035.03 369.895 2043.91 348.953C2046.48 342.91 2049.1 336.728 2051.67 330.667C2063.27 303.466 2076.73 271.733 2081.67 260C2103.27 208.933 2147.53 104.533 2151 96.6665ZM2107 416.8C2116.47 394.267 2166.6 275.733 2203.13 189.733L2217.67 155.466L2217.4 129.066L2217 102.666L2214.6 108.666C2214.06 109.902 2212.19 114.309 2209.43 120.84C2204.74 131.924 2197.47 149.127 2189.67 167.333C2184.19 180.262 2177.27 196.518 2170.28 212.938C2161.63 233.265 2152.87 253.842 2146.6 268.667C2135.27 295.466 2116.87 338.8 2105.67 364.933L2085.53 412.533L2073.93 412.933L2062.47 413.333L2038.6 469.333C2025.53 500.133 2011.13 534.266 2006.47 545.333C2001.8 556.266 1984.73 596.533 1968.6 634.667C1955.57 665.222 1937.22 708.448 1923.31 741.226C1919.87 749.355 1916.69 756.842 1913.93 763.333L1888.73 822.667L1877 823.333L1865.27 824L1838.07 888C1821.13 927.843 1797.31 984.014 1774.24 1038.41C1749.91 1095.78 1726.42 1151.17 1712.73 1183.33C1701.4 1210.13 1691.8 1232.8 1691.4 1233.6C1690.87 1234.93 1698.2 1235.33 1725.13 1235.33H1759.67L1807.53 1122.27C1816.14 1102 1825.34 1080.36 1834.25 1059.37C1852.68 1015.99 1869.93 975.369 1878.47 955.333C1898.33 908.4 1944.47 799.6 2066.6 512.133C2083.13 473.2 2101.27 430.4 2107 416.8ZM2169.1 486.063C2185.09 448.327 2199.87 413.467 2205.13 400.667L2217.67 370.667L2217.4 344.667L2217 318.667L2197 365.6L2177 412.667H2165.53H2153.93L2151.67 418.267C2150.47 421.466 2123.53 484.933 2091.93 559.333C2065.55 621.725 2038.78 684.774 2026.43 713.88C2024.05 719.481 2022.2 723.826 2021 726.667L2019.03 731.303C2011.52 749.024 2000.63 774.682 1993.67 790.933L1979.93 823.333H1969C1961.8 823.333 1957.53 823.867 1956.73 824.933C1955.93 825.867 1945 851.2 1932.33 881.333C1919.67 911.333 1904.07 948.267 1897.67 963.333C1893.57 972.97 1886.86 988.715 1880.15 1004.46C1876.37 1013.34 1872.58 1022.22 1869.27 1030C1862.12 1047.02 1851.17 1072.82 1842.28 1093.75C1839.89 1099.39 1837.65 1104.67 1835.67 1109.33C1832.03 1117.9 1827.47 1128.63 1822.69 1139.86C1815.2 1157.47 1807.18 1176.32 1801.4 1190C1791.8 1212.4 1783.67 1231.73 1783.4 1233.07C1782.73 1235.2 1784.73 1235.33 1817 1235.07L1851.4 1234.67L1857.93 1219.33C1861.53 1210.93 1867.4 1197.07 1870.87 1188.67C1872.64 1184.52 1877.57 1172.91 1884.11 1157.5C1890.82 1141.68 1899.22 1121.86 1907.67 1102C1914.86 1085.09 1923.98 1063.57 1933.36 1041.45C1945.72 1012.28 1958.53 982.064 1967.93 960C1974.4 944.772 1981.8 927.341 1989.09 910.181C2000.44 883.467 2011.51 857.408 2018.33 841.333C2029.53 814.933 2053.27 759.067 2071 717.333C2080.61 694.642 2090.22 672.029 2097.63 654.61C2103.88 639.891 2108.56 628.88 2110.33 624.667C2112.17 620.296 2117.68 607.317 2125.17 589.663C2133.45 570.159 2144.15 544.948 2155 519.333C2159.67 508.316 2164.43 497.067 2169.1 486.063ZM2131 792C2159.4 725.2 2165.67 710.4 2199.53 630.4L2217.67 587.6L2217.4 534.4L2217 481.333L2202.87 514.667C2184.6 557.466 2153.67 630.133 2107.93 737.867L2071.53 823.733L2060.2 823.467L2048.87 823.2L1985 973.6C1932.85 1096.44 1904.98 1162.2 1890.5 1196.35C1881.25 1218.17 1877.48 1227.08 1876.33 1229.73L1873.8 1235.33L1908.47 1235.07L1943.13 1234.67L1962.87 1188C1974.85 1159.82 1992.8 1117.55 2014.16 1067.22C2028.68 1033.02 2044.78 995.093 2061.67 955.333C2074.33 925.6 2088.73 891.733 2093.67 880C2098.6 868.267 2115.4 828.667 2131 792ZM2217 806.667L2217.4 767.333C2217.53 745.733 2217.53 721.067 2217.4 712.667L2217 697.333L2195.4 748C2183.67 775.867 2171.67 804.133 2168.73 810.933L2163.67 823.2L2151.93 823.6L2140.2 824L2120.47 870.667C2109.53 896.267 2082.73 959.333 2061 1010.67C2029.8 1084 1981.4 1198.13 1967.53 1231.07L1965.67 1235.33H2000.07H2034.6L2059.27 1176.93C2072.87 1144.93 2113.93 1048.4 2150.47 962.667L2217 806.667ZM2159.67 1156.67C2176.33 1117.47 2196.2 1070.67 2203.8 1052.67L2217.67 1019.87L2217.4 940C2217.13 878.933 2216.6 860.8 2215.53 863.333C2213.93 866.667 2180.33 945.733 2147.4 1023.33C2138.2 1044.93 2125.67 1074.4 2119.67 1088.67C2108.87 1113.87 2059.4 1230.27 2058.07 1233.73C2057.53 1234.93 2064.87 1235.33 2091.93 1235.33H2126.47L2127.8 1231.73C2128.37 1230.21 2135.91 1212.49 2146.27 1188.17C2150.38 1178.51 2154.93 1167.81 2159.67 1156.67ZM2217.67 1235.33V1155.33C2217.67 1111.33 2217.53 1075.33 2217.27 1075.33C2216.73 1075.33 2151.8 1228.13 2150.33 1232.53L2149.53 1235.33H2183.53H2217.67Z" fill="#D9D9D9"/>
</svg>
